<?xml version="1.0" encoding="utf-8"?>
<!-- Generator: Adobe Illustrator 15.0.0, SVG Export Plug-In . SVG Version: 6.00 Build 0)  -->
<!DOCTYPE svg PUBLIC "-//W3C//DTD SVG 1.1//EN" "http://www.w3.org/Graphics/SVG/1.1/DTD/svg11.dtd">
<svg version="1.1" id="Layer_1" xmlns="http://www.w3.org/2000/svg" xmlns:xlink="http://www.w3.org/1999/xlink" x="0px" y="0px"
	 width="500px" height="500px" viewBox="0 0 500 500" enable-background="new 0 0 500 500" xml:space="preserve">
<path fill-rule="evenodd" clip-rule="evenodd" fill="#E7E7E7" d="M276.049,184c4.368,0,8.737,0,13.106,0
	c0.595,0.409,1.945,0.062,2.834,0.177c14.416,0.404,26.693,2.946,37.551,6.908c0.977,0.618,2.219,0.97,3.365,1.417
	c0.338,0.076,0.32,0.506,0.886,0.354c0.398,0.487,1.253,0.518,1.771,0.885c0.059,0,0.118,0,0.177,0
	c0.884,0.651,2.028,1.042,3.012,1.594c0.226,0.01,0.245,0.227,0.531,0.177c0.895,0.817,2.148,1.275,3.188,1.948
	c0.448,0.261,0.792,0.626,1.417,0.708c0.473,0.65,1.29,0.954,1.949,1.417c0.059,0,0.117,0,0.177,0
	c0.341,0.722,1.285,0.84,1.771,1.417c0.501,0.267,0.754,0.781,1.417,0.886c0.777,0.935,1.79,1.634,2.834,2.303
	c0,0.059,0,0.118,0,0.177c1.948,1.713,3.757,3.564,5.668,5.314c0,0.059,0,0.118,0,0.177c0.925,0.964,1.645,2.134,2.656,3.011
	c0.414,0.886,1.092,1.507,1.595,2.303c1.126,1.53,2.013,3.3,3.188,4.783c1.788,3.643,3.56,7.304,4.782,11.513
	c0.931,0.781,3.272,0.151,4.782,0.354c1.063,0,2.125,0,3.188,0c0.652,0.41,2.063,0.062,3.011,0.177c0.768,0,1.535,0,2.303,0
	c0.245,0.404,1.232,0.066,1.771,0.177c0.531,0,1.063,0,1.594,0c0.245,0.404,1.232,0.066,1.771,0.177
	c16.936,0.895,32.174,3.487,45.167,8.325c0.481,0.463,1.257,0.632,1.948,0.886c3.112,1.315,5.983,2.873,8.855,4.428
	c0.721,0.755,1.827,1.125,2.657,1.771c0.059,0,0.118,0,0.177,0c1.77,1.419,3.635,2.743,5.491,4.074
	c0.01,0.108,0.026,0.21,0.177,0.177c0.827,0.826,1.693,1.613,2.657,2.303c0.1,0.256,0.276,0.433,0.531,0.531
	c0.693,0.842,1.461,1.609,2.303,2.303c-0.032,0.387,0.146,0.563,0.531,0.531c0.423,0.877,1.034,1.564,1.771,2.126
	c0.178,0.708,0.755,1.017,1.063,1.594c0.849,0.981,1.419,2.242,2.303,3.188c0,0.059,0,0.118,0,0.178
	c0.896,1.465,1.562,3.162,2.479,4.604c1.803,4.278,3.109,9.054,3.543,14.702c0,1.475,0,2.951,0,4.428
	c-0.453,4.564-1.295,8.742-2.479,12.575c-0.366,0.521-0.494,1.277-0.709,1.948c0,0.06,0,0.118,0,0.178
	c-0.618,0.977-0.97,2.219-1.417,3.365c0,0.059,0,0.118,0,0.177c-0.607,0.751-0.952,1.765-1.417,2.657c0,0.059,0,0.118,0,0.177
	c-0.396,0.49-0.689,1.082-0.886,1.771c-0.076,0.338-0.381,0.445-0.354,0.886c-0.396,0.49-0.689,1.082-0.886,1.771
	c-1.865,3.764-3.201,9.471-1.771,14.524c0.119,1.062,0.35,2.011,0.708,2.834c0.558,2.984,1.602,5.483,2.126,8.502
	c0.09,0.618,0.079,1.337,0.354,1.771c1.194,10.089-1.423,18.854-4.96,25.329c-1.362,2.121-2.779,4.188-4.251,6.199
	c0,0.06,0,0.118,0,0.178c-0.699,0.304-0.874,1.133-1.417,1.594c0,0.06,0,0.118,0,0.177c-0.64,0.305-0.967,0.923-1.417,1.417
	c-0.385,0.678-1.158,0.968-1.417,1.771c-0.529,0.298-1.098,0.556-1.24,1.24c-0.165,0.188-0.653,0.055-0.531,0.531
	c-1.015,0.461-1.582,1.369-2.303,2.125c-0.143,0.034-0.176,0.178-0.354,0.178c-0.459,0.249-0.818,0.599-1.24,0.886
	c0-0.118,0-0.236,0-0.354c0.059,0,0.118,0,0.177,0c0.783-0.635,1.491-1.343,2.126-2.126c0.052-0.36,0.479-0.347,0.531-0.708
	c-0.916,0.324-1.506,0.974-2.303,1.417c-0.674,0.389-1.462,0.664-1.948,1.24c-12.095,6.385-26.274,10.686-43.572,11.867
	c-0.83,0.114-2.121-0.231-2.657,0.177c-0.649,0-1.299,0-1.948,0c-0.829-0.41-2.419-0.061-3.543-0.177
	c-21.565-1.283-42.212-3.486-58.805-9.742c-0.647-0.534-1.557-0.805-2.303-1.24c-1.176-0.596-2.147-1.396-3.365-1.948
	c-0.734-0.859-1.855-1.333-2.657-2.125c-0.06,0-0.118,0-0.177,0c-0.452-0.671-1.207-1.037-1.771-1.595
	c-0.144-0.033-0.177-0.178-0.354-0.177c-1.18-1.241-2.302-2.54-3.542-3.72c-3.317-4.535-6.522-9.183-7.085-16.473
	c-1.135,2.703-1.398,6.277-1.417,10.097c-0.295,0.596-0.295,2.415,0,3.011c-0.104,5.715,1.036,11.123,2.479,14.701
	c-13.424,5.47-31.119,6.668-48.887,7.794c-0.538,0.11-1.525-0.227-1.771,0.177c-0.768,0-1.535,0-2.302,0
	c-0.83,0.115-2.121-0.231-2.657,0.177c-1.24,0-2.479,0-3.72,0c-4.191,0-8.384,0-12.576,0c-1.121,0-2.243,0-3.365,0
	c-0.419-0.407-1.59-0.063-2.303-0.177c-14.096-0.133-24.62-3.838-34.008-8.679c-0.604-0.637-1.531-0.948-2.303-1.417
	c-0.059,0-0.117,0-0.177,0c-0.355-0.531-1.024-0.747-1.595-1.063c-0.484-0.282-0.873-0.661-1.416-0.885
	c-0.353-0.003-0.226-0.483-0.709-0.354c-0.69-0.608-1.386-1.212-2.303-1.595c-1.533-1.301-3.212-2.456-4.782-3.719
	c-0.06,0-0.118,0-0.177,0c-0.49-0.75-1.321-1.159-1.949-1.771c-0.629-0.435-1.05-1.075-1.771-1.417
	c-0.457-0.605-0.988-1.138-1.594-1.595c-0.15,0.033-0.167-0.068-0.177-0.177c-1.276-1.026-2.265-2.341-3.542-3.365
	c0-0.06,0-0.118,0-0.178c-0.457-0.605-0.989-1.137-1.595-1.594c-0.034-0.144-0.178-0.177-0.177-0.354
	c-0.635-0.665-1.111-1.486-1.771-2.125c-2.447-4.815-3.473-11.052-4.074-17.713c-9.82,4.527-21.125,9.104-35.602,9.565
	c-2.007,0-4.015,0-6.022,0c-10.192-0.436-18.772-2.483-26.038-5.846c-1.002-0.71-2.264-1.16-3.365-1.771
	c-1.647-0.832-3.111-1.848-4.782-2.656c-0.86-0.853-2.033-1.392-3.011-2.126c-0.459-0.19-0.659-0.641-1.24-0.708
	c-0.73-0.863-1.798-1.39-2.657-2.126c-0.696-0.426-1.119-1.125-1.949-1.417c-0.564-0.794-1.442-1.273-2.125-1.948
	c-0.661-0.283-0.787-1.102-1.594-1.24c0.032-0.386-0.145-0.563-0.532-0.531c-1.414-1.479-2.779-3.007-4.251-4.428
	c-0.052-0.361-0.479-0.348-0.531-0.709c-1.071-1.113-1.897-2.472-3.011-3.542c0-0.059,0-0.118,0-0.177
	c-0.533-0.529-0.758-1.368-1.417-1.771c-0.599-1.29-1.435-2.344-2.125-3.543c-0.386-0.558-0.481-1.407-1.063-1.771
	c-3.994-6.503-5.185-19.478-0.708-26.393c0.589-0.473,0.791-1.334,1.24-1.947c0.157-0.375,0.539-0.523,0.531-1.063
	c0.654-0.526,1.106-1.256,1.594-1.948c0.167-0.541,0.862-0.555,0.886-1.24c0.665-0.516,1.255-1.106,1.771-1.771
	c-0.032-0.15,0.069-0.166,0.177-0.176c0.444-0.146,0.56-0.621,0.886-0.887c1.564-1.505,3.344-2.796,4.959-4.25
	c0.059,0,0.118,0,0.177,0c0.476-0.469,1.192-0.697,1.594-1.24c0.526-0.064,0.874-0.307,1.063-0.709c0.059,0,0.118,0,0.177,0
	c1.241-0.825,2.758-1.375,3.896-2.303c0.059,0,0.118,0,0.177,0c0.805-0.434,1.827-0.652,2.479-1.24
	c3.64-1.275,8.668-2.664,13.107-3.896c2.283-0.633,4.42-1.655,5.845-0.531c0.228,0.304,0.366,0.697,0.885,0.709
	c0.373,0.689,1.182,0.943,1.771,1.417c1.785,1.108,3.667,2.118,5.845,2.834c0.143,0.094,0.288,0.185,0.531,0.177
	c4.479,1.78,9.691,2.826,15.056,3.72c-0.865,3.015-2.591,6.768-2.834,11.159c-0.26,4.692,0.873,8.218,2.834,11.158
	c3.584,5.375,9.612,8.956,15.764,12.045c11.652,5.849,31.6,9.03,46.584,3.543c-15.912,0.763-28.264-5.043-38.613-11.514
	c-6.123-3.828-11.044-6.89-11.69-15.764c-1.392-19.125,14.14-31.131,28.872-34.717c-17.863,2.742-32.723,10.024-40.208,23.734
	c-0.286,0.051-0.305-0.167-0.531-0.177c-0.059,0-0.118,0-0.177,0c-0.503-0.619-1.326-0.918-1.948-1.417c-0.059,0-0.118,0-0.177,0
	c-0.154-0.26-0.265-0.562-0.708-0.531c-0.941-1.008-2.147-1.75-3.188-2.657c-0.15,0.032-0.167-0.069-0.177-0.177
	c-1.977-1.684-3.623-3.698-5.491-5.491c0-0.059,0-0.118,0-0.177c-0.559-0.622-0.906-1.455-1.594-1.949
	c-0.324-0.915-0.974-1.506-1.417-2.302c-0.361-0.584-0.647-1.242-1.063-1.771c-2.795-4.87-4.153-13.992-1.594-20.192
	c1.123-2.065,2.389-3.987,3.897-5.668c1.068-0.939,2.094-1.921,3.188-2.834c0.603-0.46,1.339-0.787,1.771-1.417
	c4.452-2.869,9.331-5.311,14.524-7.439c0.059,0,0.118,0,0.177,0c0.604-0.222,1.272-0.381,1.771-0.708
	c10.401-3.71,21.872-6.35,35.425-6.908c0.538-0.111,1.526,0.227,1.771-0.177c1.966,0.136,3.433-0.229,5.313-0.177
	c0.654-0.113,1.765,0.229,2.125-0.177c0.827,0,1.654,0,2.48,0c0.83-0.115,2.121,0.232,2.656-0.177c1.122,0,2.244,0,3.365,0
	c1.419-0.117,3.305,0.234,4.429-0.177c2.538,0,5.077,0,7.616,0c-0.576,4.186,0.111,8.459,1.948,10.805
	c0.153,0.555,0.438,0.978,0.886,1.24c0.328,0.262,0.266,0.916,0.886,0.886c-0.841-9.232,2.558-15.74,6.376-20.901
	c0.034-0.144,0.178-0.177,0.178-0.354c0.753-0.782,1.586-1.483,2.125-2.479c0.411-0.239,0.796-0.503,1.063-0.886
	c1.528-1.483,3.334-2.688,4.96-4.074c4.246-2.662,9.401-4.415,14.879-5.845c0.411,0.057,0.68-0.028,0.886-0.177
	c15.949-3.417,32.764-5.967,50.48-7.616c1.43,0.055,3.581-0.473,0.886-0.354c-0.532,0-1.063,0-1.595,0
	c-0.478-0.408-1.708-0.063-2.479-0.177c-3.778,0-7.558,0-11.336,0c-0.947,0.115-2.358-0.233-3.011,0.177c-0.768,0-1.535,0-2.303,0
	c-0.539,0.111-1.526-0.227-1.771,0.177c-12.756,0.47-24.393,2.058-35.07,4.605c9.489-3.086,20.762-4.39,32.413-5.314
	c0.539-0.111,1.526,0.227,1.771-0.177c2.188,0.122,3.834-0.299,6.022-0.177C274.815,184.066,275.803,184.404,276.049,184z
	 M299.252,187.542c-0.885-0.182-2.268-0.798-3.188-0.354c0.977,0.027,1.623,0.384,2.479,0.531c0.667,0.159,1.239,0.414,1.948,0.531
	c0.003,0.292,0.491,0.099,0.532,0.354c-0.354,0-0.709,0-1.063,0c-0.245-0.404-1.232-0.066-1.771-0.177
	c-2.52,0.04-4.317-0.101-6.554,0c-0.597,0.112-1.646-0.229-1.949,0.177c-9.355,0.622-17.316,2.639-23.734,6.199
	c-1.792,0.983-3.355,2.194-4.605,3.72c0,0.059,0,0.118,0,0.177c-0.709,0.472-1.098,1.264-1.417,2.125
	c-0.259,0.567-0.606,1.046-0.531,1.949c-0.293,0.248-0.293,1.7,0,1.948c0.258,2.99,1.901,4.593,3.365,6.376
	c0.339,0.488,0.752,0.901,1.24,1.24c0.678,0.385,0.967,1.159,1.771,1.417c1.039,1.205,2.511,1.977,3.896,2.834
	c0.059,0,0.118,0,0.177,0c0.537,0.704,1.518,0.963,2.303,1.417c0.227,0.01,0.245,0.227,0.531,0.177
	c0.356,0.648,1.363,0.644,1.949,1.063c17.789,8.188,43.37,8.586,63.41,14.524c0.754,0.545,1.737,0.86,2.657,1.24
	c0.918,0.44,1.64,1.076,2.656,1.417c0.826,0.886,1.947,1.478,2.834,2.303c0.473,0.59,1.127,0.999,1.595,1.594
	c0.489,0.514,0.842,1.165,1.417,1.594c0.72,1.11,1.587,2.073,2.303,3.188c0.579,0.955,1.144,1.926,1.948,2.657
	c0.321,0.859,0.907,1.455,1.417,2.126c1.293,1.717,2.621,3.4,4.251,4.782c0.01,0.108,0.026,0.21,0.177,0.177
	c0.48,0.523,0.819,1.188,1.594,1.418c0.038,0.848,1.101,0.67,0.886,1.771c1.406-0.071,2.844-1.643,3.543-3.011
	c0.237-0.648,0.676-1.096,0.886-1.771c0.624-0.497,1.043-1.2,1.417-1.948c0-0.06,0-0.118,0-0.177
	c0.683-0.676,1.028-1.688,1.417-2.657c1.011-1.829,1.513-5.636,0.708-8.148c0.361-0.407,1.472-0.064,2.126-0.177
	c13.386,1.315,24.57,4.833,35.956,8.148c0.405,0.48,1.286,0.484,1.948,0.708c3.018,1.056,5.961,2.187,9.033,3.188
	c0.862,0.555,1.938,0.896,3.012,1.24c2.394,0.971,4.607,2.122,7.085,3.01c1.12,0.77,2.5,1.279,3.72,1.949
	c0.673,0.271,1.176,0.713,1.948,0.885c0.486,0.576,1.274,0.852,1.948,1.24c0.374,0.158,0.523,0.539,1.063,0.531
	c2.251,1.646,4.4,3.395,6.199,5.491c-0.129,0.483,0.353,0.356,0.354,0.708c0.526,0.655,0.846,1.517,1.417,2.126
	c0,0.06,0,0.118,0,0.177c0.488,0.93,0.923,1.911,1.417,2.834c1.269,3.633,2.284,7.518,2.479,12.223c0,1.889,0,3.778,0,5.668
	c-0.489,8.544-2.65,15.416-5.137,21.963c-0.495,0.567-0.726,1.399-1.063,2.126c-0.586,1.421-1.424,2.591-1.948,4.073
	c-0.414,0.471-0.818,1.291-1.771,0.709c-7.411-2.39-15.478-4.125-24.797-4.605c-0.246-0.404-1.233-0.066-1.771-0.177
	c-1.124,0.115-2.713-0.234-3.543,0.177c1.589,0.36,2.697,1.2,4.074,1.771c1.869,1.26,3.769,2.489,5.491,3.896
	c0.059,0,0.118,0,0.177,0c0.451,0.67,1.206,1.037,1.771,1.594c0.059,0,0.118,0,0.177,0c0.483,0.639,0.976,1.269,1.771,1.595
	c0.01,0.107,0.026,0.209,0.177,0.177c2.846,2.94,5.667,5.906,8.148,9.211c0.107,0.01,0.209,0.026,0.177,0.177
	c0.431,0.69,0.753,1.491,1.417,1.948c0,0.06,0,0.118,0,0.177c0.459,0.723,0.817,1.545,1.417,2.126
	c1.773,3.599,3.675,7.07,4.074,12.045c0,1.063,0,2.125,0,3.188c-0.065,1.411-0.374,2.579-0.531,3.897
	c-0.318,0.745-0.517,1.609-0.709,2.479c-0.767,2.244-1.815,4.207-2.834,6.199c-1.239,1.653-2.331,3.455-3.72,4.959
	c0,0.06,0,0.118,0,0.178c-1.304,1.176-2.567,2.392-3.72,3.72c-0.059,0-0.118,0-0.177,0c-0.998,0.95-2.267,1.63-3.188,2.656
	c-0.209,0.086-0.401,0.189-0.531,0.354c-0.715,0.289-1.352,0.656-1.771,1.24c-0.059,0-0.118,0-0.177,0
	c-0.674,0.389-1.462,0.664-1.948,1.239c-0.244-0.007-0.39,0.084-0.531,0.178c-1.22,0.67-2.6,1.18-3.72,1.948
	c-2.467,1.076-5.359,1.726-7.616,3.011c0.427,0.073,0.385-0.323,0.885-0.177c1.184,0.295,3.6,0.295,4.783,0
	c9.911-0.479,18.642-2.141,26.568-4.605c0.76-0.125,1.482-0.289,1.948-0.708c2.173-0.544,4.055-1.377,5.668-2.48
	c2.836-1.179,4.507-3.522,6.022-6.021c3.977-7.698,7.529-19.061,6.554-29.935c-0.511-5.689-3.822-9.735-4.429-14.878
	c0-0.768,0-1.535,0-2.303c0.203-2.277,1.099-3.861,1.771-5.668c0.419-0.526,0.753-1.137,1.063-1.771
	c0.003-0.353,0.483-0.226,0.354-0.709c0.743-0.791,1.146-1.924,1.595-3.011c2.354-5.439,4.051-11.535,4.251-19.129
	c0.295-1.479,0.295-4.191,0-5.668c-0.426-10.557-3.345-18.62-7.439-25.506c-0.343-0.662-0.531-1.477-1.24-1.771
	c0-0.06,0-0.119,0-0.178c-1.302-1.945-2.879-3.615-4.605-5.137c-0.059,0-0.118,0-0.177,0c-1.219-1.438-2.871-2.441-4.428-3.542
	c-1.232-0.835-2.402-1.731-3.897-2.303c-0.486-0.576-1.274-0.851-1.948-1.24c-0.059,0-0.118,0-0.177,0
	c-0.646-0.534-1.557-0.805-2.303-1.24c-0.059,0-0.118,0-0.177,0c-0.434-0.452-1.166-0.605-1.771-0.885
	c-19.524-8.521-43.792-12.298-70.318-13.816c-0.662-0.165-1.313-0.34-1.417-1.063c-0.403-2.785-1.261-5.116-2.48-7.085
	c-0.657-1.645-1.534-3.071-2.656-4.251c0-0.059,0-0.118,0-0.177c-0.506-0.498-0.702-1.306-1.417-1.594c0-0.059,0-0.118,0-0.177
	c-1.923-2.447-4.243-4.496-6.554-6.554c-0.06,0-0.118,0-0.178,0c-0.372-0.631-1.085-0.921-1.594-1.417
	c-0.418-0.055-0.329-0.615-0.886-0.531c-0.794-0.977-1.954-1.589-3.011-2.303c-0.06,0-0.118,0-0.178,0
	c-0.42-0.583-1.057-0.95-1.771-1.24c-0.039-0.138-0.148-0.206-0.354-0.177c-1.25-1.171-2.903-1.938-4.428-2.834
	c-0.06,0-0.118,0-0.178,0c-0.909-0.862-2.2-1.342-3.365-1.948c-1.52-0.783-2.976-1.63-4.605-2.303
	c-0.398-0.487-1.253-0.518-1.771-0.886c-1.519-0.666-2.956-1.413-4.605-1.948c-0.627-0.318-1.209-0.68-1.948-0.886
	c-0.489-0.219-0.9-0.517-1.595-0.531c-1.025-0.627-2.273-1.033-3.542-1.417C311.479,190.547,305.768,188.644,299.252,187.542z
	 M181.995,219.248c-10.031,0.242-19.243,1.304-27.277,3.542c-0.818,0.126-1.532,0.357-2.126,0.708
	c-0.414,0.058-0.73,0.213-1.063,0.354c-0.891,0.349-1.924,0.555-2.479,1.24c-0.06,0-0.118,0-0.177,0
	c-1,0.476-1.665,1.287-2.48,1.949c-0.973-0.029-1.461,0.428-2.125,0.708c-0.794,0.327-1.395,0.849-1.948,1.417
	c-0.01,0.108-0.026,0.209-0.177,0.177c-0.578,0.485-0.937,1.188-1.24,1.949c-0.742,1.833-0.517,4.597,0.354,6.199
	c0.235,0.709,0.458,1.431,1.063,1.771c0.097,0.73,0.583,1.071,1.063,1.417c0.613,1.041,1.613,1.694,2.657,2.303
	c1.909,1.279,4.365,2.012,7.616,1.948c0.538,0.294,2.296,0.294,2.834,0c5.437-0.172,9.218-2,13.106-3.719
	c0.926-0.314,1.754-0.728,2.48-1.24c0.66-0.107,1.16-0.375,1.594-0.708c0.971-0.328,1.93-0.667,2.657-1.24
	c2.764-0.838,5.146-2.058,7.794-3.011c0.932-0.426,2.1-0.616,2.834-1.24c1.531-0.476,2.934-1.081,4.25-1.771
	c0.754-0.31,1.692-0.434,2.126-1.063c0.309,0.013,0.551-0.04,0.708-0.177c1.602-0.82,3.238-1.604,4.429-2.834
	c0.06,0,0.118,0,0.177,0c0.883-0.829,1.913-1.512,2.48-2.657c0.359-0.585,0.662-1.227,0.531-2.303
	c0.066-1.129-0.676-1.449-1.24-1.948c-3.369-2.476-9.841-1.849-15.587-1.948C183.94,219.186,182.59,218.838,181.995,219.248z
	 M204.313,249.536c-1.507,0.463-5.97,0.187-7.793,1.417c-2.867,1.089-4.82,3.092-6.199,5.668c-0.221,0.429-0.439,0.86-0.531,1.417
	c-0.408,0.36-0.476,1.06-0.531,1.771c-0.429,1.461-0.124,3.644,0.177,4.96c0.638,1.724,1.472,3.25,2.834,4.25
	c6.043,4.703,18.453,3.038,25.151,7.086c1.86,1.387,3.685,2.81,4.959,4.781c1.07,1.721,1.004,4.414,0.355,6.555
	c-0.06,0-0.119,0-0.178,0c0.023,1.57,1.113,2.074,2.48,2.303c0.432,0.344,1.528,0.217,1.771-0.178
	c1.138-0.635,2.278-1.264,3.188-2.125c0.059,0,0.118,0,0.177,0c1.925-1.322,3.642-2.854,5.137-4.605
	c0.308-0.578,0.885-0.887,1.063-1.595c0.551-0.511,0.803-1.322,1.063-2.125c0.332-0.79,0.567-1.677,0.531-2.834
	c0.294-0.421,0.294-2.059,0-2.479c0.072-1.607-0.498-2.573-0.709-3.897c-0.951-3.063-2.334-5.696-4.251-7.794
	c-0.01-0.107-0.026-0.209-0.177-0.176c-1.402-2.26-3.264-4.059-5.491-5.492c-0.01-0.107-0.026-0.209-0.177-0.176
	c-1.1-1.145-2.519-1.97-4.074-2.658c-3.886-2.313-8.596-3.803-14.523-4.073C207.557,249.241,205.32,249.241,204.313,249.536z
	 M114.156,277.521c-3.108,0.139-5.393,1.102-7.439,2.303c-2.147,1.219-3.753,2.978-4.783,5.314
	c-0.372,0.453-0.539,1.113-0.708,1.771c-0.35,0.418-0.417,1.117-0.531,1.771c-0.329,1.146-0.589,2.363-0.531,3.897
	c-0.405,0.303-0.065,1.352-0.177,1.947c-0.065,3.844-0.053,7.61,1.063,10.273c0.291,0.831,0.542,1.701,1.063,2.303
	c0.01,0.108,0.026,0.21,0.177,0.177c0.652,1.769,1.908,2.935,3.188,4.074c0.01,0.108,0.027,0.21,0.177,0.177
	c0.724,0.752,1.5,1.453,2.48,1.949c0.5,0.386,1.109,0.661,1.594,1.063c0.609,0.454,1.318,0.808,2.125,1.063
	c5.067,2.195,10.602,3.922,17.713,4.074c0.538,0.294,2.296,0.294,2.834,0c2.167,0.101,3.725-0.408,5.313-0.886
	c1.354-0.477,2.576-1.085,3.188-2.303c0.404-0.731,0.404-1.748,0-2.479c-0.239-0.824-0.619-1.507-1.24-1.948
	c-0.01-0.108-0.026-0.21-0.177-0.178c-0.229-0.774-0.894-1.113-1.417-1.594c-0.01-0.108-0.026-0.21-0.177-0.177
	c-0.72-0.935-1.698-1.609-2.657-2.303c-0.932-0.662-1.704-1.484-2.834-1.949c-0.671-0.863-1.718-1.352-2.657-1.948
	c-0.552-0.333-1.011-0.76-1.594-1.063c-0.521-0.482-1.191-0.816-1.771-1.24c-0.786-0.395-1.251-1.11-2.125-1.417
	c-0.37-0.692-1.212-0.913-1.771-1.417c-0.059,0-0.118,0-0.177,0c-2.109-1.905-4.545-3.484-6.376-5.667c0-0.06,0-0.119,0-0.178
	c-0.564-0.794-0.895-1.82-1.417-2.656c-0.68-3.665,1.555-5.701,1.417-9.389c-0.139-1.277-0.99-1.844-0.708-3.542
	C114.908,277.447,114.179,277.131,114.156,277.521z M302.439,279.647c-3.041-0.528-5.898,1.015-8.855,1.063
	c-3.621,0.06-7.509-0.972-10.45,1.063c-0.979,0.32-1.816,0.781-2.48,1.416c-0.059,0-0.118,0-0.177,0
	c-1.704,1.131-3.26,2.408-4.428,4.074c-0.744,0.85-1.474,1.715-1.949,2.834c-0.643,0.479-0.792,1.451-1.239,2.125
	c-1.763,3.279-3.267,9.299-1.595,13.816c0.319,0.861,0.708,1.654,1.417,2.125c0.461,0.838,1.11,1.488,1.949,1.949
	c0.986,1.139,2.254,1.996,3.719,2.656c1.082,0.867,2.469,1.428,3.897,1.948c0.716,0.524,1.704,0.775,2.656,1.063
	c15.534,5.012,37.925,3.168,49.418,12.221c1.267,1.272,2.415,2.663,3.543,4.074c0,0.06,0,0.118,0,0.177
	c0.257,0.688,0.474,1.415,0.886,1.949c0.023,1.038,0.413,1.712,0.354,2.834c0.112,0.596-0.228,1.645,0.178,1.948
	c-0.126,1.72,0.317,2.871,0.886,3.896c0.386,0.795,0.976,1.385,1.771,1.771c1.193,0.814,2.842,1.174,4.782,1.239
	c0.655,0.295,2.534,0.295,3.188,0c1.216,0.035,2.122-0.239,3.012-0.531c2.063-0.533,3.848-1.348,5.136-2.656
	c0.616-0.094,0.824-0.594,1.24-0.886c2.264-1.929,4.07-4.314,5.491-7.085c0.01-0.227,0.227-0.245,0.177-0.531
	c0.629-0.435,0.753-1.373,1.063-2.126c0.076-0.337,0.382-0.445,0.354-0.886c0.367-0.459,0.604-1.05,0.709-1.771
	c0.885-2.539,1.717-5.131,1.771-8.502c0.294-0.19,0.294-1.58,0-1.771c-0.038-4.095-1.202-7.063-2.656-9.742
	c-0.375-0.865-0.717-1.763-1.417-2.303c0-0.059,0-0.118,0-0.177c-0.477-0.941-1.137-1.697-1.771-2.48
	c-0.108-0.01-0.21-0.026-0.177-0.177c-0.764-0.831-1.295-1.894-2.303-2.479c-0.375-0.688-0.906-1.22-1.595-1.595
	c-0.635-0.958-1.616-1.571-2.479-2.302c-0.108-0.011-0.21-0.027-0.177-0.178c-1.287-1.192-2.737-2.222-4.251-3.188
	c-5.449-3.762-11.416-7.005-18.421-9.21c-0.499-0.328-1.105-0.549-1.771-0.708c-7.983-2.526-16.165-4.854-26.568-4.96
	C304.736,279.354,302.978,279.354,302.439,279.647z M236.195,318.792c-1.464-4.977-2.776-12.851-0.709-18.775
	c-0.463-0.287-0.997,0.445-1.239,0.709c-2.774,3.012-4.44,8.808-4.429,14.17c0.033,15.137,8.402,25.854,17.713,32.768
	c10.036,7.453,22.662,12.276,36.487,13.815C262.791,353.444,242.84,341.384,236.195,318.792z"/>
<path fill-rule="evenodd" clip-rule="evenodd" fill="#A9A9A9" d="M75.543,282.836c-0.625,0.058-1.789,0.975-1.063,1.24
	c-0.108,0.01-0.209,0.025-0.177,0.176c-0.348-0.053-0.351,0.24-0.531,0.355c-0.863-0.055-0.75,0.872-1.771,1.594
	c0.1,0.513,0.276-0.271,0.532-0.178c-0.024,0.686-0.719,0.699-0.886,1.24c-0.717,0.464-1.083,1.278-1.594,1.948
	c0.008,0.54-0.374,0.688-0.531,1.063c-0.619,0.443-0.856,1.27-1.24,1.947c-4.477,6.915-3.286,19.89,0.708,26.393
	c0.386,0.558,0.481,1.407,1.063,1.771c0.69,1.199,1.526,2.253,2.125,3.543c0.474,0.589,0.728,1.398,1.417,1.771
	c0,0.059,0,0.118,0,0.177c0.967,1.218,1.724,2.645,3.011,3.542c0.052,0.361,0.479,0.348,0.531,0.709
	c0.245,0.522,0.818,0.717,1.063,1.24c0.62,1.152,2.289,2.787,3.72,3.719c0.807,0.139,0.933,0.957,1.594,1.24
	c0.538,0.82,1.393,1.323,2.125,1.948c0.83,0.292,1.253,0.991,1.949,1.417c0.729,0.865,1.703,1.485,2.657,2.126
	c0.581,0.067,0.781,0.518,1.24,0.708c0.807,0.905,1.969,1.455,3.011,2.126c1.671,0.809,3.135,1.824,4.782,2.656
	c0.909,0.804,2.162,1.264,3.365,1.771c7.265,3.362,15.845,5.41,26.038,5.846c1.596,0.295,4.426,0.295,6.022,0
	c14.477-0.461,25.782-5.038,35.602-9.565c0.602,6.661,1.627,12.897,4.074,17.713c0.467,0.832,1.002,1.595,1.771,2.125
	c-0.001,0.178,0.143,0.211,0.177,0.354c0.55,0.514,0.843,1.283,1.595,1.594c0,0.06,0,0.118,0,0.178c0,0.059,0,0.118,0,0.177
	c-0.133,0.335-0.529,0.123-0.178,0.531c0.516,0.254,0.199,0.136,0.178-0.354c0.99,0.301,1.521,2.643,1.594,1.417
	c0.78,0.4,1.021,1.34,1.948,1.594c0.01,0.108,0.026,0.21,0.177,0.177c0.312,0.752,1.081,1.045,1.594,1.595
	c0.722,0.342,1.143,0.982,1.771,1.417c0.477,0.764,1.293,1.187,1.949,1.771c0.059,0,0.117,0,0.177,0
	c1.39,1.444,3.051,2.617,4.782,3.719c0.917,0.383,1.612,0.986,2.303,1.595c-0.262-0.205-0.446-0.205-0.709,0
	c0.266-0.233,2.302,1.576,1.418,0.354c0.543,0.224,0.932,0.603,1.416,0.885c0.355,0.531,1.025,0.747,1.595,1.063
	c0.06,0,0.118,0,0.177,0c0.59,0.65,1.504,0.976,2.303,1.417c9.388,4.841,19.912,8.546,34.008,8.679
	c0.42,0.407,1.59,0.063,2.303,0.177c1.122,0,2.244,0,3.365,0c3.779,0.296,8.797,0.296,12.576,0c1.24,0,2.479,0,3.72,0
	c0.829-0.114,2.12,0.232,2.657-0.177c0.767,0,1.534,0,2.302,0c0.539-0.111,1.526,0.227,1.771-0.177
	c17.768-1.126,35.463-2.324,48.887-7.794c-1.443-3.578-2.584-8.986-2.479-14.701c0-1.004,0-2.008,0-3.011
	c0.019-3.819,0.282-7.394,1.417-10.097c0.563,7.29,3.768,11.938,7.085,16.473c0,0.06,0,0.118,0,0.178
	c0.392,0.848,1.01,1.469,1.771,1.948c0.108,0.01,0.21,0.026,0.178,0.177c0.305,0.585,1.203,1.506,1.594,1.417
	c0.178-0.001,0.211,0.144,0.354,0.177c0.286,0.836,1.23,1.014,1.771,1.595c0.059,0,0.117,0,0.177,0
	c0.621,0.973,1.758,1.431,2.657,2.125c1.218,0.553,2.189,1.353,3.365,1.948c0.559,0.622,1.449,0.913,2.303,1.24
	c16.593,6.256,37.239,8.459,58.805,9.742c0.83,0.41,2.419,0.061,3.543,0.177c0.649,0,1.299,0,1.948,0
	c0.83-0.114,2.121,0.231,2.657-0.177c17.298-1.182,31.478-5.482,43.572-11.867c0.741-0.321,1.462-0.664,1.948-1.24
	c0.797-0.443,1.387-1.093,2.303-1.417c-0.052,0.361-0.479,0.348-0.531,0.708c-0.821,0.597-1.464,1.37-2.126,2.126
	c-0.059,0-0.118,0-0.177,0c-0.466,0.184-0.597,0.702-1.063,0.886c0.387-0.719-0.898,0.688-0.709-0.354
	c-0.36,0.568-0.562,0.495-0.177,1.063c0,0.06,0,0.118,0,0.178c-0.656,0.465-1.252,0.991-1.948,1.417
	c0.483-0.561-0.627-0.034,0.177-0.531c-0.232-0.222-0.855,0.671-1.239,0.885c0.44,0.027,0.548-0.278,0.885-0.354
	c-0.232,0.356-0.581,0.599-1.063,0.708c-0.648-0.388-1.175,0.207-1.417,0c-0.546,0.178,0.385,0.292,0.354,0.531
	c-0.018,0.455-0.691,0.254-0.709,0.709c-1.952,1.117-3.816,2.323-6.021,3.188c-0.808,0.255-1.518,0.608-2.126,1.063
	c-10.611,4.739-22.144,8.558-37.196,8.856c-0.947,0.115-2.357-0.233-3.011,0.177c-2.775,0-5.55,0-8.325,0
	c-0.771-0.41-2.3-0.062-3.365-0.177c-0.826,0-1.653,0-2.479,0c-0.304-0.405-1.353-0.065-1.948-0.178
	c-12.513-0.358-23.869-1.873-35.248-3.365c-4.606-0.825-9.188-1.676-13.815-2.479c-2.338-0.519-5.135-1.894-7.085-0.354
	c-8.872,2.76-17.197,6.065-26.746,8.147c-0.273-0.371-1.054-0.063-0.354-0.531c-0.501,0.686-1.18,0.146-1.24,0.886
	c-9.39,2.005-19.658,3.131-30.643,3.543c-0.885,0-1.771,0-2.656,0c-0.889,0.114-2.24-0.232-2.834,0.177c-1.535,0-3.07,0-4.605,0
	c-0.594-0.409-1.945-0.063-2.834-0.177c-0.886,0-1.771,0-2.656,0c-23.095-1.054-43.536-4.761-60.4-12.045
	c-0.924-0.522-0.796-0.789-1.594-0.886c-0.608-0.101-1.084-0.333-1.417-0.708c0.351-0.12,0.778-0.589,0.177-0.709
	c-0.408-0.318-1.104-0.05-0.708,0.531c-1.694-1.081-3.56-1.99-4.96-3.365c0.704-0.336-3.088-1.898-2.479-2.656
	c0.077,0.218,0.227,0.363,0.531,0.354c-0.497-0.917-0.628-0.412-1.595-0.708c-0.059,0-0.117,0-0.176,0
	c-0.721-0.639-1.508-1.209-2.126-1.948c-0.184-0.467-0.702-0.597-0.886-1.063c-0.436-0.715-0.705-1.086-1.771-1.771
	c-0.365-0.639-1.051-0.956-1.417-1.595c-0.12-0.411-0.589-0.474-0.708-0.886c-0.693-0.841-1.461-1.608-2.303-2.302
	c-2.227-1.632-4.534-3.366-7.793-3.72c-3.486-0.379-7.238,0.711-10.982,0.886c-13.082,0.608-24.907-2.525-35.248-4.429
	c-7.871-2.226-15.414-4.777-21.963-8.325c-0.689-0.728-1.742-1.092-2.657-1.594c-0.059,0-0.118,0-0.177,0
	c0.048-0.627-1.348-0.714-2.125-1.417c-0.059,0-0.118,0-0.177,0c-0.114-0.535-0.804-0.494-1.063-0.886
	c0.653,0.19,0.76-0.92,0.177-0.708c-0.801,0.29,0.21,0.348-0.708,0c-0.61-0.231,0.589,0.504,0,0.354c-0.059,0-0.118,0-0.177,0
	c-2.194-1.348-4.248-2.837-6.022-4.604c-0.034-0.144-0.177-0.177-0.177-0.354c-0.564-0.794-1.442-1.273-2.125-1.948
	c-1.437-0.866-2.399-2.207-3.542-3.365c-0.656-0.289-0.921-0.969-1.417-1.417c-0.262-0.919-1.155-1.207-1.417-2.126
	c0.562-0.348-1.171-1.445-0.708-0.886c-0.559-0.149-0.504-0.913-1.063-1.063c-0.205-0.444-0.706-0.593-0.708-1.24
	c-0.509-0.88-0.104-1.005-0.708-1.594c0.361,0.309,0.347-0.132,0.708,0.177c-0.223-0.385-1.321-0.581-0.886,0.178
	c-0.165-0.13-0.268-0.322-0.354-0.531c0.004-0.364-0.793-1.446-1.24-1.949c0-0.059,0-0.117,0-0.177
	c-0.75-1.021-1.083-2.459-1.949-3.365c-3.004-6.324-5.678-12.979-6.376-21.609c0-1.239,0-2.479,0-3.72c0-0.472,0-0.944,0-1.417
	c0.379-2.336,0.816-4.615,1.594-6.554c0.172-0.005,0.138-0.217,0.177-0.354c0.238,0.116,0.33,0.378,0.354,0.708
	c-0.126-0.503,0.553-1.43,0-1.771c0.155-0.494,0.424-0.875,0.532-1.417c0.418-0.407,0.566-1.086,0.885-1.594
	c0.851-0.368,0.74-0.686,1.594-0.886c-0.627-0.616,0.353-0.817-0.354-1.063c0-0.118,0-0.236,0-0.354
	c0.157-0.078,0.316-0.155,0.354-0.354c0.547-0.044,0.425-0.756,0.886-0.887c0.664,0.088,0.61-1.582,1.771-1.416
	c-0.548-0.046-0.449-0.094-0.177-0.887c0.08-0.746,0.837-0.814,1.063-1.416c1.08-0.336,2.375-3.197,4.074-3.365
	c0.063-1.201,2.122-1.877,2.834-3.012c0.418-0.055,0.33-0.615,0.886-0.531c0.602-0.461,1.338-0.787,1.771-1.417
	c0.727-0.513,1.421-1.059,2.302-1.417c0.883-0.475,1.78-0.936,2.48-1.594c0.447-0.262,0.791-0.627,1.417-0.709
	c0.558-0.387,1.408-0.482,1.771-1.063c4.516-2.451,9.622-4.313,14.702-6.199c4.067-1.129,8.165-2.227,12.398-3.188
	c0.57,0.038,0.75-0.313,1.417-0.177c-0.04-0.139-0.005-0.35-0.177-0.355c-0.619-0.738-1.641-1.075-2.125-1.947
	c-0.02-0.441-0.332-0.549,0-0.887c-0.789,0.763-0.202-0.594-0.886,0c-1.46-1.314-2.164-3.386-2.48-5.844c0-1.004,0-2.008,0-3.012
	c0-0.295,0-0.59,0-0.886c0-0.06,0-0.118,0-0.177c0.63-2.44,1.249-4.893,2.303-6.908c0.593-0.766,0.923-1.792,1.417-2.657
	c0.046-0.544,0.384-0.797,0.531-1.24c0.637-0.367,0.826-1.182,1.24-1.771c0.868-1.73,1.99-3.206,3.188-4.605
	c0.359-0.408,0.704-0.832,1.063-1.24c0.715-0.439,2.137-1.921,1.417-1.771c0.557-0.565,0.924-1.32,1.594-1.771
	c0.621,0.057,1.695-1.551,1.063-1.063c0.976-1.268,2.504-1.983,3.542-3.188c0.348-0.302,0.885-0.414,1.063-0.886
	c0.059,0,0.118,0,0.177,0c1.005-0.471,1.698-1.254,2.834-1.594c0.721-0.401,1.575-0.669,2.125-1.24c0.059,0,0.118,0,0.177,0
	c0.262-0.092,0.446-0.262,0.708-0.354c-0.025,0.762,0.513-0.396,1.063-0.177c-0.078,0.218-0.227,0.364-0.532,0.354
	c0.644,0.311,0.818-0.39,0.708-0.708c0-0.059,0-0.118,0-0.177c0.627-0.377,1.421-0.587,1.949-1.063c0.059,0,0.118,0,0.177,0
	c13.039-5.5,28.066-9.012,45.875-9.742c0.713-0.114,1.883,0.23,2.303-0.177c1.24,0,2.479,0,3.72,0c1.299,0,2.598,0,3.896,0
	c1.417,0,2.834,0,4.251,0c0.246,0.404,1.232,0.066,1.771,0.177c5.787,0.058,10.905,0.785,16.118,1.417
	c0.534,0.233,1.413,0.122,1.948,0.354c0.175-0.416,0.311-0.871,0.354-1.417c0.249-0.046,0.202-0.388,0.354-0.531
	c0.191-0.043,0.119-0.352,0.354-0.354c0.309-0.466,1.166-1.306,0.886-1.771c0.034-0.144,0.178-0.176,0.177-0.354
	c-0.083-0.556,0.478-0.468,0.532-0.886c0.415-0.057,0.396-0.548,0.708-0.708c0.945-0.826,1.723-1.82,2.48-2.834
	c0.055-0.418,0.615-0.33,0.531-0.886c0.341-0.072,0.14-0.687,0.708-0.531c0.466-0.183,0.597-0.703,1.063-0.886
	c0.129,0.522,1.297-1.199,1.947-1.771c0.323-0.504,1.008-0.646,1.24-1.24c0.059,0,0.118,0,0.178,0
	c0.41-0.593,1.378-0.629,1.594-1.417c1.615-1.218,3.215-2.452,5.313-3.188c0.235,0.464,0.786,0.338,1.24,0.177
	c-0.905-0.064,0.046-0.357-0.532-0.532c0.314-0.512,1.249-0.405,1.595-0.885c0.991-0.19,1.764-0.598,2.657-0.886
	c1.451-0.497,3.09-0.806,4.428-1.417c0.059,0,0.118,0,0.178,0c10.678-2.547,22.314-4.135,35.07-4.605
	c0.538-0.111,1.525,0.227,1.771-0.177c0.768,0,1.535,0,2.303,0c0.947-0.115,2.357,0.233,3.011-0.177c3.778,0,7.558,0,11.336,0
	c0.478,0.408,1.708,0.063,2.479,0.177c0.531,0,1.063,0,1.595,0c0.079,0.493-0.966-0.139-0.886,0.354
	c-17.717,1.649-34.531,4.2-50.48,7.616c-0.161-0.37-0.523-0.54-1.063-0.531c0.955,0.289-0.135,0.372,0.177,0.708
	c-5.478,1.43-10.633,3.183-14.879,5.845c-1.843,1.167-3.563,2.458-4.96,4.074c-0.267,0.382-0.651,0.647-1.063,0.886
	c-0.396,0.429-0.709,0.943-1.239,1.24c-0.401,0.307-1.731,1.377-1.063,1.594c-3.818,5.161-7.217,11.669-6.376,20.901
	c-0.62,0.03-0.558-0.624-0.886-0.886c-0.871-0.569,0.467-1.43-0.354-1.948c-0.336,0.503,0.059,0.221,0.177,0.708
	c-0.313,0.539-0.549-0.484-0.709,0c-1.837-2.345-2.524-6.619-1.948-10.805c-2.539,0-5.078,0-7.616,0
	c-1.419,0.117-3.305-0.234-4.429,0.177c-1.121,0-2.243,0-3.365,0c-0.83,0.114-2.121-0.232-2.656,0.177c-0.826,0-1.653,0-2.48,0
	c-0.654,0.113-1.764-0.229-2.125,0.177c-1.881-0.051-3.348,0.313-5.313,0.177c-0.538,0.111-1.526-0.227-1.771,0.177
	c-13.553,0.559-25.023,3.198-35.425,6.908c-0.549-0.018-0.846,0.216-1.24,0.354c-1.042-0.144-0.34-0.176-1.417-0.354
	c-0.499,0.285,0.698,0.349,0.708,0.708c-5.193,2.128-10.072,4.57-14.524,7.439c-0.603,0.461-1.338,0.787-1.771,1.417
	c-1.094,0.913-2.12,1.895-3.188,2.834c-1.648,1.541-2.984,3.393-3.897,5.668c-2.559,6.201-1.201,15.322,1.594,20.192
	c-0.59-0.374,0.509,2.091,1.063,1.771c0.443,0.796,1.093,1.387,1.417,2.302c0.51,0.671,0.877,1.485,1.594,1.949
	c0,0.059,0,0.118,0,0.177c0.622,0.792,1.437,1.792,2.303,2.657c0.779,0.779,2.114,1.617,1.948,2.303
	c0.464,0.069,0.61,0.279,1.24,0.531c0.01,0.107,0.026,0.209,0.177,0.177c0.034,0.144,0.178,0.177,0.177,0.354
	c-0.663,0.428,0.131-0.277-0.531-0.354c-0.026,0.845,0.596,0.428,1.24,1.063c0.92,0.379,1.44,1.157,2.303,1.594
	c0.443-0.03,0.554,0.271,0.708,0.531c-0.175,0.759,1.142,1.105,1.771,1.24c0.144,0.033,0.177,0.178,0.354,0.177
	c0.059,0,0.118,0,0.177,0c0.078,0.157,0.155,0.317,0.354,0.354c-0.028,0.207-0.323,0.148-0.531,0.177
	c-5.365-0.894-10.577-1.939-15.056-3.72c0.983,0.176-0.216-0.736-0.531-0.709c-0.401,0.037,0.814,0.327,0,0.532
	c-2.178-0.716-4.06-1.726-5.845-2.834c-0.033-0.675-0.988-0.429-1.063-1.063c-0.807-0.691-0.817-1.176-1.594-1.063
	c-1.425-1.124-3.562-0.102-5.845,0.531c-4.439,1.232-9.467,2.621-13.107,3.896c-0.85,0.391-1.883,0.598-2.479,1.24
	c-0.059,0-0.118,0-0.177,0c-1.188,0.525-2.208,1.217-3.365,1.771c0.395-0.658-1.279,0.553-1.594,0.886
	c0.233-0.181,0.653-0.174,0.886-0.354c-0.189,0.402-0.537,0.645-1.063,0.709c-0.554,0.391-1.334,0.555-1.594,1.24
	c-0.059,0-0.118,0-0.177,0C78.587,280.094,77.073,281.473,75.543,282.836z M158.792,351.028c-0.108-0.01-0.21-0.026-0.177-0.177
	c0.137-0.04,0.349-0.005,0.354-0.177c-0.519-0.047-0.544,0.4-1.063,0.354c0.039-0.223,0.275-0.361-0.178-0.354
	C157.561,351.505,159.17,351.065,158.792,351.028z M316.964,372.992c0.003,0.352,0.483,0.226,0.354,0.708
	c-0.348,0.054-0.352-0.239-0.531-0.354c0.069,0.305-0.263,0.454,0,0.531c0.123-0.278,0.807,0.146,0.886-0.178
	C317.54,373.464,316.637,372.561,316.964,372.992z M407.829,399.206c0.394-0.137,0.961-0.102,1.063-0.531
	c-0.604-0.325-0.836-0.094-0.177,0.178C408.275,398.826,407.855,398.819,407.829,399.206z M87.942,363.073
	c-0.008-0.244,0.083-0.389,0.177-0.531c-0.33,0.024-0.592,0.116-0.708,0.354c0.421,0.325,1.019,0.457,1.417,0
	C88.327,362.75,88.369,363.146,87.942,363.073z M115.928,226.333c0.01-0.108,0.026-0.21,0.177-0.177
	c0.235-0.026,0.659,0.596,0.708,0.177c-0.111-0.479-0.091-0.031-0.532-0.354c0.229-0.199,1.317-0.435,0.886-0.708
	C116.824,225.584,115.595,225.931,115.928,226.333z"/>
<path fill-rule="evenodd" clip-rule="evenodd" fill="#B4B4B4" d="M133.109,277.345c0.226,0.01,0.245,0.228,0.531,0.177
	c7.485-13.71,22.344-20.992,40.208-23.734c-14.731,3.586-30.264,15.592-28.872,34.717c0.646,8.874,5.567,11.936,11.69,15.764
	c10.35,6.471,22.701,12.276,38.613,11.514c-14.984,5.487-34.932,2.306-46.584-3.543c-6.152-3.089-12.18-6.67-15.764-12.045
	c-1.961-2.94-3.094-6.466-2.834-11.158c0.243-4.392,1.969-8.145,2.834-11.159c0.208-0.028,0.503,0.03,0.531-0.177
	C133.264,277.662,133.187,277.502,133.109,277.345z"/>
<path fill-rule="evenodd" clip-rule="evenodd" fill="#FFFFFF" d="M143.382,240.68c-0.48-0.346-0.966-0.687-1.063-1.417
	c-0.361-0.583-0.647-1.242-1.063-1.771c-0.871-1.602-1.096-4.367-0.354-6.199c0.473-0.59,0.883-1.243,1.24-1.949
	c0.151,0.033,0.167-0.069,0.177-0.177c0.719-0.403,1.389-0.855,1.948-1.417c0.664-0.281,1.152-0.737,2.125-0.708
	c1.062-0.414,1.65-1.302,2.48-1.949c0.059,0,0.117,0,0.177,0c0.824-0.416,1.8-0.68,2.479-1.24c0.332-0.141,0.648-0.296,1.063-0.354
	c0.819-0.126,1.532-0.358,2.126-0.708c8.034-2.239,17.246-3.301,27.277-3.542c0.889-0.115,2.239,0.232,2.834-0.177
	c5.746,0.099,12.218-0.527,15.587,1.948c0.49,0.573,0.977,1.148,1.24,1.948c0.131,1.076-0.172,1.717-0.531,2.303
	c-0.755,0.958-1.748,1.676-2.48,2.657c-0.059,0-0.117,0-0.177,0c-1.39,1.031-3.006,1.836-4.429,2.834
	c-0.157,0.138-0.399,0.19-0.708,0.177c-0.683,0.38-1.554,0.572-2.126,1.063c-1.316,0.69-2.719,1.295-4.25,1.771
	c-0.938,0.421-2.125,0.591-2.834,1.24c-2.648,0.954-5.03,2.173-7.794,3.011c-0.919,0.38-1.902,0.695-2.657,1.24
	c-0.434,0.333-0.934,0.601-1.594,0.708c-0.885,0.356-1.814,0.666-2.48,1.24c-3.889,1.719-7.67,3.547-13.106,3.719
	c-0.944,0-1.89,0-2.834,0c-3.251,0.063-5.707-0.669-7.616-1.948C145.154,242.214,144.236,241.479,143.382,240.68z"/>
<path fill-rule="evenodd" clip-rule="evenodd" fill="#FFFFFF" d="M208.564,249.536c5.928,0.271,10.638,1.761,14.523,4.073
	c1.312,0.934,2.77,1.719,4.074,2.658c0.15-0.033,0.167,0.068,0.177,0.176c2.049,1.612,3.841,3.48,5.491,5.492
	c0.15-0.033,0.167,0.068,0.177,0.176c1.688,2.328,3.091,4.939,4.251,7.794c0.211,1.324,0.781,2.29,0.709,3.897
	c0,0.826,0,1.652,0,2.479c0.036,1.157-0.199,2.044-0.531,2.834c-0.49,0.572-0.684,1.442-1.063,2.125
	c-0.179,0.708-0.756,1.017-1.063,1.595c-1.62,1.626-3.413,3.081-5.137,4.605c-0.059,0-0.118,0-0.177,0
	c-1.131,0.64-2.215,1.328-3.188,2.125c-0.242,0.395-1.339,0.521-1.771,0.178c-0.945-0.591-2.43-0.643-2.303-2.303
	c0.648-2.141,0.715-4.834-0.355-6.555c-1.063-2.184-2.945-3.548-4.959-4.781c-6.698-4.048-19.108-2.383-25.151-7.086
	c-1.149-1.213-1.985-2.738-2.834-4.25c-0.301-1.316-0.605-3.499-0.177-4.96c0.332-0.436,0.321-1.214,0.531-1.771
	c0.092-0.557,0.311-0.988,0.531-1.417c1.514-2.442,3.554-4.357,6.199-5.668c1.823-1.23,6.286-0.954,7.793-1.417
	C205.73,249.536,207.146,249.536,208.564,249.536z"/>
<path fill-rule="evenodd" clip-rule="evenodd" fill="#FFFFFF" d="M124.252,300.193c0.875,0.307,1.339,1.022,2.125,1.417
	c0.352,0.652,1.104,0.904,1.771,1.24c0.583,0.303,1.042,0.729,1.594,1.063c0,0.06,0,0.118,0,0.178
	c0.942,0.534,1.734,1.218,2.657,1.771c1.13,0.465,1.902,1.287,2.834,1.949c0,0.059,0,0.118,0,0.177
	c0.915,0.679,1.714,1.474,2.657,2.126c0.151-0.033,0.167,0.068,0.177,0.177c0.449,0.555,0.926,1.081,1.417,1.594
	c0.15-0.032,0.167,0.069,0.177,0.178c0.478,0.585,0.777,1.349,1.24,1.948c0.404,0.731,0.404,1.748,0,2.479c-0.059,0-0.118,0-0.177,0
	c-0.518,1.253-2.031,1.511-3.011,2.303c-1.588,0.478-3.146,0.986-5.313,0.886c-0.945,0-1.89,0-2.834,0
	c-7.111-0.152-12.646-1.879-17.713-4.074c-0.581-0.481-1.291-0.835-2.125-1.063c-0.484-0.401-1.094-0.677-1.594-1.063
	c-0.757-0.72-1.612-1.341-2.48-1.949c-0.15,0.033-0.167-0.068-0.177-0.177c-1.153-1.268-2.257-2.584-3.188-4.074
	c-0.151,0.033-0.167-0.068-0.177-0.177c-0.323-0.799-0.557-1.687-1.063-2.303c-1.116-2.663-1.128-6.43-1.063-10.273
	c0.405-0.303,0.065-1.352,0.177-1.947c-0.058-1.534,0.202-2.751,0.531-3.897c0.35-0.418,0.417-1.118,0.531-1.771
	c0.17-0.658,0.336-1.318,0.708-1.771c0.059,0,0.118,0,0.177,0c0.983-2.323,2.776-3.837,4.605-5.314
	c2.046-1.201,4.331-2.164,7.439-2.303c0.295,0,0.59,0,0.886,0c-0.216,1.634,0.478,2.356,0.886,3.365
	c0.138,3.688-2.097,5.724-1.417,9.389c0.284,1.074,0.699,2.017,1.417,2.656c0,0.059,0,0.118,0,0.178
	c1.619,2.395,4.125,3.903,6.376,5.667c0.059,0,0.118,0,0.177,0C122.914,299.407,123.65,299.733,124.252,300.193z"/>
<path fill-rule="evenodd" clip-rule="evenodd" fill="#FFFFFF" d="M333.614,285.315c7.005,2.205,12.972,5.448,18.421,9.21
	c0,0.06,0,0.119,0,0.178c1.525,0.895,2.736,2.104,4.251,3.011c-0.033,0.15,0.068,0.167,0.177,0.178c0,0.059,0,0.118,0,0.177
	c0.841,0.694,1.64,1.431,2.479,2.125c0.688,0.375,1.22,0.906,1.595,1.595c0.821,0.772,1.337,1.851,2.303,2.479
	c-0.033,0.15,0.068,0.167,0.177,0.177c0.51,0.908,1.052,1.783,1.771,2.48c0,0.059,0,0.118,0,0.177
	c0.497,0.743,0.824,1.655,1.417,2.303c1.454,2.679,2.618,5.647,2.656,9.742c0,0.59,0,1.181,0,1.771
	c-0.054,3.371-0.886,5.963-1.771,8.502c-0.328,0.499-0.549,1.105-0.709,1.771c0.027,0.44-0.278,0.549-0.354,0.886
	c-0.495,0.567-0.726,1.399-1.063,2.126c0.05,0.286-0.167,0.305-0.177,0.531c-1.64,2.552-3.378,5.006-5.491,7.085
	c-0.416,0.292-0.624,0.792-1.24,0.886c-1.478,1.119-3.298,1.897-5.136,2.656c-0.89,0.292-1.796,0.566-3.012,0.531
	c-1.063,0-2.125,0-3.188,0c-1.94-0.065-3.589-0.425-4.782-1.239c-0.634-0.548-1.224-1.138-1.771-1.771
	c-0.568-1.025-1.012-2.177-0.886-3.896c-0.112-0.597,0.228-1.646-0.178-1.948c0.06-1.122-0.33-1.796-0.354-2.834
	c-0.183-0.763-0.443-1.447-0.886-1.949c0-0.059,0-0.117,0-0.177c-0.922-1.617-2.074-3.004-3.543-4.074
	c-11.493-9.053-33.884-7.209-49.418-12.221c-0.729-0.511-1.732-0.747-2.656-1.063c-1.429-0.521-2.815-1.081-3.897-1.948
	c-1.293-0.832-2.517-1.733-3.719-2.656c-0.839-0.461-1.488-1.111-1.949-1.949c-0.606-0.573-0.815-1.545-1.417-2.125
	c-1.672-4.518-0.168-10.537,1.595-13.816c0.059,0,0.118,0,0.177,0c0.354-0.709,0.71-1.416,1.063-2.125
	c0.476-1.119,1.205-1.984,1.949-2.834c0.059,0,0.117,0,0.177,0c1.214-1.561,2.795-2.756,4.251-4.074c0.059,0,0.118,0,0.177,0
	c0.832-0.467,1.753-0.845,2.48-1.416c2.941-2.035,6.829-1.004,10.45-1.063c2.957-0.048,5.814-1.591,8.855-1.063
	c0.945,0,1.89,0,2.835,0c10.403,0.105,18.585,2.434,26.568,4.96C332.302,284.975,332.893,285.21,333.614,285.315z"/>
<path fill-rule="evenodd" clip-rule="evenodd" fill="#B4B4B4" d="M284.019,361.479c-13.825-1.539-26.451-6.362-36.487-13.815
	c-9.311-6.913-17.68-17.631-17.713-32.768c-0.012-5.362,1.654-11.158,4.429-14.17c0.242-0.264,0.776-0.996,1.239-0.709
	c-2.067,5.925-0.755,13.799,0.709,18.775C242.84,341.384,262.791,353.444,284.019,361.479z"/>
</svg>
